<?xml version="1.0" standalone="no"?>
<!DOCTYPE svg PUBLIC "-//W3C//DTD SVG 20010904//EN"
 "http://www.w3.org/TR/2001/REC-SVG-20010904/DTD/svg10.dtd">
<svg version="1.0" xmlns="http://www.w3.org/2000/svg"
 width="1024.000000pt" height="1024.000000pt" viewBox="0 0 1024.000000 1024.000000"
 preserveAspectRatio="xMidYMid meet">

<g transform="translate(0.000000,1024.000000) scale(0.100000,-0.100000)"
fill="#000000" stroke="none">
<path d="M0 5120 l0 -5120 5120 0 5120 0 0 5120 0 5120 -5120 0 -5120 0 0
-5120z m5527 3079 c170 -100 389 -230 488 -289 99 -59 277 -164 395 -232 477
-276 1111 -649 1473 -865 l107 -64 0 -1634 0 -1634 -97 -57 c-54 -32 -244
-144 -422 -251 -178 -107 -337 -201 -352 -209 l-29 -15 0 198 0 198 173 100
c94 54 220 128 280 163 l107 64 0 1443 c0 1142 -3 1445 -12 1453 -16 12 -803
473 -1820 1065 -185 108 -365 214 -400 235 -35 21 -98 57 -140 81 l-78 42
-107 -64 c-60 -35 -223 -131 -363 -212 -262 -152 -570 -333 -905 -530 l-190
-113 -3 191 c-2 145 1 194 10 202 7 7 117 72 243 145 348 202 858 501 1170
686 77 46 146 83 152 84 7 0 151 -82 320 -181z m-264 -660 c44 -22 234 -130
276 -156 28 -18 60 4 -399 -263 -168 -97 -402 -233 -520 -302 -118 -68 -434
-252 -702 -408 l-488 -283 0 -368 0 -369 -170 0 -170 0 0 473 0 472 128 71
c181 102 757 433 952 549 91 53 278 163 415 243 138 80 333 194 435 254 101
59 188 108 192 108 5 0 28 -10 51 -21z m-1943 -449 l0 -191 -37 -22 c-20 -12
-154 -90 -297 -173 l-261 -151 -6 -159 c-3 -87 -4 -735 -2 -1439 2 -1012 5
-1281 15 -1290 7 -7 173 -104 368 -217 195 -113 479 -277 630 -365 151 -88
334 -192 405 -233 72 -40 171 -97 220 -125 50 -29 260 -150 468 -269 l377
-217 213 122 c116 67 259 150 317 184 58 35 213 126 345 203 132 76 330 192
439 256 110 65 217 126 238 137 l38 19 0 -192 0 -193 -143 -84 c-131 -78 -486
-286 -802 -469 -212 -123 -505 -292 -576 -333 l-67 -38 -313 181 c-173 99
-471 271 -664 381 -192 110 -444 255 -560 322 -115 67 -454 262 -752 434
l-543 313 0 1627 0 1626 48 29 c53 33 610 357 777 453 61 34 113 63 118 63 4
0 7 -86 7 -190z m2580 -134 l0 -195 -112 -66 c-62 -37 -241 -140 -397 -229
-247 -140 -294 -170 -356 -231 -140 -138 -194 -317 -150 -503 19 -79 42 -124
100 -195 59 -73 126 -120 374 -262 289 -165 390 -246 475 -378 86 -134 125
-264 133 -439 13 -282 -68 -498 -257 -689 -91 -92 -162 -139 -422 -283 l-153
-85 -45 26 c-199 114 -280 165 -275 172 3 5 89 55 192 112 395 216 450 253
498 334 14 25 30 45 35 45 6 0 10 5 10 11 0 6 11 25 24 42 51 68 77 232 56
356 -8 48 -27 104 -56 162 -76 150 -157 217 -474 389 -302 163 -392 245 -484
441 -60 125 -71 184 -70 359 1 162 7 198 70 365 45 120 171 269 306 362 40 28
210 129 378 225 168 96 370 213 450 261 80 47 146 86 148 86 1 1 2 -86 2 -193z
m399 -30 c58 -34 152 -89 209 -120 56 -31 102 -59 102 -62 0 -2 -97 -4 -215
-4 l-215 0 0 125 c0 69 3 125 7 125 3 0 54 -29 112 -64z m862 -503 l118 -66
-2 -1241 -2 -1240 -210 -123 c-115 -68 -255 -150 -310 -182 -55 -32 -338 -198
-630 -368 -291 -170 -612 -358 -712 -417 -100 -58 -189 -109 -197 -112 -13 -5
-311 156 -372 201 -17 12 -8 19 111 75 286 136 375 182 495 253 529 313 579
343 1065 627 88 51 217 127 288 169 l127 75 0 1038 0 1038 -435 0 -435 0 0
164 c0 122 3 166 13 169 6 3 227 6 491 6 l478 1 119 -67z m-1261 -563 c0 -324
-2 -590 -4 -590 -2 0 -80 44 -173 98 l-168 98 0 399 0 399 165 93 c91 51 168
93 172 93 5 0 8 -265 8 -590z m-1572 279 c-3 -128 -6 -150 -22 -168 l-19 -21
-24 40 c-35 59 -37 49 -4 -17 69 -137 96 -267 88 -422 -8 -158 -54 -294 -138
-418 l-29 -42 192 -121 c106 -68 198 -125 205 -127 10 -4 13 21 13 106 0 61 3
111 8 111 4 -1 81 -45 172 -98 l165 -98 2 -164 c2 -91 0 -297 -5 -459 l-7
-293 -75 -42 c-41 -23 -117 -65 -167 -93 l-93 -51 0 341 0 342 -213 127 c-116
70 -273 165 -348 212 l-136 85 -84 -29 c-103 -36 -188 -50 -297 -50 l-82 0 2
-357 3 -357 100 -59 c102 -60 814 -471 1005 -580 58 -33 149 -87 203 -120 l99
-60 -147 -82 c-80 -46 -159 -88 -175 -95 -27 -11 -41 -5 -252 117 -123 71
-438 252 -700 403 l-478 275 0 622 0 622 278 3 c307 4 318 6 442 80 98 59 190
198 212 320 30 168 -71 370 -230 456 l-54 29 264 151 c352 200 322 186 326
154 2 -15 2 -93 0 -173z m2202 -1182 l0 -813 -152 -89 c-84 -49 -163 -95 -175
-103 l-23 -14 0 916 0 916 175 0 175 0 0 -813z m-2497 -563 c95 -58 199 -125
232 -148 l60 -42 3 -172 c1 -95 1 -172 -2 -172 -2 0 -110 63 -240 141 l-236
140 0 180 c0 98 2 179 5 179 3 0 83 -48 178 -106z"/>
</g>
</svg>
